#N canvas -8 -8 1264 930 10;
#X obj -856 236 expr~ $v1 * $v2 + $v3;
#X obj -756 168 pack f f;
#X obj -760 190 line~;
#X floatatom -786 143 5 0 0 0 - - -, f 5;
#X obj -893 214 osc~;
#X obj -856 212 expr~ $v1 * 0.5 + 0.5;
#X obj -815 167 pack f f;
#X obj -813 192 line~;
#X floatatom -726 142 5 0 0 0 - - -, f 5;
#X floatatom -828 145 5 0 0 0 - - -, f 5;
#X obj -871 169 pack f f;
#X obj -864 192 line~;
#X floatatom -871 147 5 0 0 0 - - -, f 5;
#X obj -790 257 osc~;
#X obj -659 656 dac~;
#X obj -681 508 hsl 128 15 0 1 0 0 empty empty empty -2 -8 0 10 -262144
-1 -1 5900 1;
#X obj -684 550 line~;
#X obj -685 528 pack f 20;
#X obj -499 593 *~;
#X obj -768 314 hsl 128 15 0 1 0 0 empty empty empty -2 -8 0 10 -262144
-1 -1 4650 1;
#X obj -786 361 line~;
#X obj -787 339 pack f 20;
#X obj -802 390 *~;
#X obj -800 416 lop~;
#X floatatom -771 395 5 0 0 0 - - -, f 5;
#X floatatom -765 422 5 0 0 0 - - -, f 5;
#X obj -801 441 hip~;
#X obj -866 121 mtof;
#X obj -829 120 mtof;
#X obj -784 119 mtof;
#X obj -906 9 random 7;
#X obj -894 33 * 12;
#X floatatom -847 19 5 0 0 0 - - -, f 5;
#X obj -907 -14 metro 100;
#X obj -904 -36 tgl 15 0 empty empty empty 17 7 0 10 -262144 -1 -1
1 1;
#X floatatom -846 -28 5 0 0 0 - - -, f 5;
#X obj -889 60 +;
#X floatatom -841 -2 5 0 0 0 - - -, f 5;
#X floatatom -853 50 5 0 0 0 - - -, f 5;
#X obj -798 -5 random 7;
#X obj -786 19 * 12;
#X floatatom -739 5 5 0 0 0 - - -, f 5;
#X obj -799 -28 metro 100;
#X obj -796 -50 tgl 15 0 empty empty empty 17 7 0 10 -262144 -1 -1
1 1;
#X floatatom -733 -42 5 0 0 0 - - -, f 5;
#X obj -781 46 +;
#X floatatom -738 -22 5 0 0 0 - - -, f 5;
#X floatatom -745 36 5 0 0 0 - - -, f 5;
#X obj -690 -7 random 7;
#X obj -678 17 * 12;
#X floatatom -631 3 5 0 0 0 - - -, f 5;
#X obj -691 -30 metro 100;
#X obj -688 -52 tgl 15 0 empty empty empty 17 7 0 10 -262144 -1 -1
1 1;
#X floatatom -628 -42 5 0 0 0 - - -, f 5;
#X obj -673 44 +;
#X floatatom -625 -18 5 0 0 0 - - -, f 5;
#X floatatom -637 34 5 0 0 0 - - -, f 5;
#X obj -727 378 hsl 128 15 20 20000 1 0 empty empty freq -2 -8 0 10
-260097 -86853 -1 11000 1;
#X obj -897 -87 tgl 15 0 empty empty empty 17 7 0 10 -262144 -1 -1
1 1;
#X floatatom -794 -91 5 0 0 0 - - -, f 5;
#X obj -810 590 *~;
#X obj -714 412 hsl 128 15 20 20000 1 0 empty empty freq -2 -8 0 10
-260097 -86853 -1 3000 1;
#X obj -526 210 expr~ $v1 * $v2 + $v3;
#X obj -426 142 pack f f;
#X obj -430 164 line~;
#X floatatom -456 117 5 0 0 0 - - -, f 5;
#X obj -563 188 osc~;
#X obj -526 186 expr~ $v1 * 0.5 + 0.5;
#X obj -485 141 pack f f;
#X obj -483 166 line~;
#X floatatom -396 116 5 0 0 0 - - -, f 5;
#X floatatom -498 119 5 0 0 0 - - -, f 5;
#X obj -541 143 pack f f;
#X obj -534 166 line~;
#X floatatom -541 121 5 0 0 0 - - -, f 5;
#X obj -460 231 osc~;
#X obj -536 95 mtof;
#X obj -499 94 mtof;
#X obj -454 93 mtof;
#X obj -576 -17 random 7;
#X obj -564 7 * 12;
#X floatatom -517 -7 5 0 0 0 - - -, f 5;
#X obj -577 -40 metro 100;
#X obj -574 -62 tgl 15 0 empty empty empty 17 7 0 10 -262144 -1 -1
1 1;
#X floatatom -516 -54 5 0 0 0 - - -, f 5;
#X obj -559 34 +;
#X floatatom -511 -28 5 0 0 0 - - -, f 5;
#X floatatom -523 24 5 0 0 0 - - -, f 5;
#X obj -468 -31 random 7;
#X obj -456 -7 * 12;
#X floatatom -409 -21 5 0 0 0 - - -, f 5;
#X obj -469 -54 metro 100;
#X obj -466 -76 tgl 15 0 empty empty empty 17 7 0 10 -262144 -1 -1
1 1;
#X floatatom -403 -68 5 0 0 0 - - -, f 5;
#X obj -451 20 +;
#X floatatom -408 -48 5 0 0 0 - - -, f 5;
#X floatatom -415 10 5 0 0 0 - - -, f 5;
#X obj -360 -33 random 7;
#X obj -348 -9 * 12;
#X floatatom -301 -23 5 0 0 0 - - -, f 5;
#X obj -361 -56 metro 100;
#X obj -358 -78 tgl 15 0 empty empty empty 17 7 0 10 -262144 -1 -1
1 1;
#X floatatom -298 -68 5 0 0 0 - - -, f 5;
#X obj -343 18 +;
#X floatatom -295 -44 5 0 0 0 - - -, f 5;
#X floatatom -307 8 5 0 0 0 - - -, f 5;
#X obj -451 304 hsl 128 15 0 1 0 0 empty empty empty -2 -8 0 10 -262144
-1 -1 4650 1;
#X obj -469 351 line~;
#X obj -470 329 pack f 20;
#X obj -485 380 *~;
#X obj -483 406 lop~;
#X floatatom -454 385 5 0 0 0 - - -, f 5;
#X floatatom -448 412 5 0 0 0 - - -, f 5;
#X obj -484 431 hip~;
#X obj -410 368 hsl 128 15 20 20000 1 0 empty empty freq -2 -8 0 10
-260097 -86853 -1 10600 1;
#X obj -397 402 hsl 128 15 20 20000 1 0 empty empty freq -2 -8 0 10
-260097 -86853 -1 2700 1;
#X obj -665 460 delwrite~ delais 5000;
#X obj -177 376 vd~ delais;
#X obj -95 311 hsl 128 15 0 1 0 0 empty empty empty -2 -8 0 10 -262144
-1 -1 6100 1;
#X obj -109 363 line~;
#X obj -110 341 pack f 20;
#X obj -163 402 *~;
#X obj -200 452 hsl 128 15 0 1 0 0 empty empty empty -2 -8 0 10 -262144
-1 -1 12700 1;
#X obj -209 495 line~;
#X obj -210 473 pack f 20;
#X obj -231 516 *~;
#X obj -542 -110 tgl 15 0 empty empty empty 17 7 0 10 -262144 -1 -1
1 1;
#X floatatom -463 -125 5 0 0 0 - - -, f 5;
#X obj -193 285 expr~ $v1 * $v2 + $v3;
#X obj -94 234 pack f f;
#X obj -98 256 line~;
#X floatatom -124 209 5 0 0 0 - - -, f 5;
#X obj -231 280 osc~;
#X obj -153 233 pack f f;
#X obj -151 258 line~;
#X floatatom -64 208 5 0 0 0 - - -, f 5;
#X floatatom -166 211 5 0 0 0 - - -, f 5;
#X obj -209 235 pack f f;
#X obj -202 258 line~;
#X floatatom -229 164 5 0 0 0 - - -, f 5;
#X obj 59 337 vd~ delais;
#X obj 145 277 hsl 128 15 0 1 0 0 empty empty empty -2 -8 0 10 -262144
-1 -1 7100 1;
#X obj 127 324 line~;
#X obj 126 302 pack f 20;
#X obj 73 363 *~;
#X obj 43 246 expr~ $v1 * $v2 + $v3;
#X obj 142 195 pack f f;
#X obj 138 217 line~;
#X floatatom 112 170 5 0 0 0 - - -, f 5;
#X obj 5 241 osc~;
#X obj 83 194 pack f f;
#X obj 85 219 line~;
#X floatatom 172 169 5 0 0 0 - - -, f 5;
#X floatatom 70 172 5 0 0 0 - - -, f 5;
#X obj 27 196 pack f f;
#X obj 34 219 line~;
#X obj 70 426 hsl 128 15 0 1 0 0 empty empty empty -2 -8 0 10 -262144
-1 -1 12700 1;
#X obj 67 467 line~;
#X obj 66 445 pack f 20;
#X obj 48 488 *~;
#X obj -220 201 * 0.1;
#X floatatom -11 117 5 0 0 0 - - -, f 5;
#X obj -2 154 * 0.1;
#X obj -629 252 hsl 128 15 0 1 0 0 empty empty empty -2 -8 0 10 -262144
-1 -1 4650 1;
#X obj 27 631 *~, f 4;
#X obj -13 633 *~, f 4;
#X obj -239 642 *~, f 4;
#X obj -290 642 *~, f 4;
#X obj -10 357 +;
#X obj 10 332 t b f;
#X floatatom -15 381 5 0 0 0 - - -, f 5;
#X obj -387 74 +;
#X floatatom -355 65 5 0 0 0 - - -, f 5;
#X obj -443 60 +;
#X obj -510 65 +;
#X obj -704 92 +;
#X floatatom -672 83 5 0 0 0 - - -, f 5;
#X obj -760 78 +;
#X obj -827 83 +;
#X obj -219 565 osc~;
#X obj -268 592 expr~ $v1 * 0.5 + 0.5;
#X obj -286 613 expr~ $v1 * -1 + 1;
#X obj -256 565 line~;
#X floatatom -270 501 5 0 0 0 - - -, f 5;
#X obj -274 517 * 0.1;
#X obj -259 541 pack f 20;
#X obj 52 549 osc~;
#X obj 5 577 expr~ $v1 * 0.5 + 0.5;
#X obj -9 602 expr~ $v1 * -1 + 1;
#X obj 8 546 line~;
#X floatatom 0 471 5 0 0 0 - - -, f 5;
#X obj 0 493 * 0.1;
#X obj 8 519 pack f 20;
#X connect 0 0 13 0;
#X connect 1 0 2 0;
#X connect 2 0 0 2;
#X connect 3 0 1 0;
#X connect 4 0 5 0;
#X connect 5 0 0 0;
#X connect 6 0 7 0;
#X connect 7 0 0 1;
#X connect 8 0 1 1;
#X connect 8 0 6 1;
#X connect 8 0 10 1;
#X connect 9 0 6 0;
#X connect 10 0 11 0;
#X connect 11 0 4 0;
#X connect 12 0 10 0;
#X connect 13 0 22 0;
#X connect 15 0 17 0;
#X connect 16 0 18 1;
#X connect 16 0 60 1;
#X connect 17 0 16 0;
#X connect 18 0 14 1;
#X connect 19 0 21 0;
#X connect 20 0 22 1;
#X connect 21 0 20 0;
#X connect 22 0 23 0;
#X connect 23 0 26 0;
#X connect 24 0 23 1;
#X connect 25 0 26 1;
#X connect 26 0 60 0;
#X connect 26 0 116 0;
#X connect 27 0 12 0;
#X connect 28 0 9 0;
#X connect 29 0 3 0;
#X connect 30 0 31 0;
#X connect 31 0 36 0;
#X connect 32 0 31 1;
#X connect 33 0 30 0;
#X connect 34 0 33 0;
#X connect 35 0 33 1;
#X connect 36 0 178 0;
#X connect 37 0 30 1;
#X connect 38 0 36 1;
#X connect 39 0 40 0;
#X connect 40 0 45 0;
#X connect 41 0 40 1;
#X connect 42 0 39 0;
#X connect 43 0 42 0;
#X connect 44 0 42 1;
#X connect 45 0 177 0;
#X connect 46 0 39 1;
#X connect 47 0 45 1;
#X connect 48 0 49 0;
#X connect 49 0 54 0;
#X connect 50 0 49 1;
#X connect 51 0 48 0;
#X connect 52 0 51 0;
#X connect 53 0 51 1;
#X connect 54 0 175 0;
#X connect 55 0 48 1;
#X connect 56 0 54 1;
#X connect 57 0 24 0;
#X connect 58 0 34 0;
#X connect 58 0 43 0;
#X connect 58 0 52 0;
#X connect 59 0 53 0;
#X connect 59 0 44 0;
#X connect 59 0 35 0;
#X connect 60 0 14 0;
#X connect 61 0 25 0;
#X connect 62 0 75 0;
#X connect 63 0 64 0;
#X connect 64 0 62 2;
#X connect 65 0 63 0;
#X connect 66 0 67 0;
#X connect 67 0 62 0;
#X connect 68 0 69 0;
#X connect 69 0 62 1;
#X connect 70 0 63 1;
#X connect 70 0 68 1;
#X connect 70 0 72 1;
#X connect 71 0 68 0;
#X connect 72 0 73 0;
#X connect 73 0 66 0;
#X connect 74 0 72 0;
#X connect 75 0 109 0;
#X connect 76 0 74 0;
#X connect 77 0 71 0;
#X connect 78 0 65 0;
#X connect 79 0 80 0;
#X connect 80 0 85 0;
#X connect 81 0 80 1;
#X connect 82 0 79 0;
#X connect 83 0 82 0;
#X connect 84 0 82 1;
#X connect 85 0 174 0;
#X connect 86 0 79 1;
#X connect 87 0 85 1;
#X connect 88 0 89 0;
#X connect 89 0 94 0;
#X connect 90 0 89 1;
#X connect 91 0 88 0;
#X connect 92 0 91 0;
#X connect 93 0 91 1;
#X connect 94 0 173 0;
#X connect 95 0 88 1;
#X connect 96 0 94 1;
#X connect 97 0 98 0;
#X connect 98 0 103 0;
#X connect 99 0 98 1;
#X connect 100 0 97 0;
#X connect 101 0 100 0;
#X connect 102 0 100 1;
#X connect 103 0 171 0;
#X connect 104 0 97 1;
#X connect 105 0 103 1;
#X connect 106 0 108 0;
#X connect 107 0 109 1;
#X connect 108 0 107 0;
#X connect 109 0 110 0;
#X connect 110 0 113 0;
#X connect 111 0 110 1;
#X connect 112 0 113 1;
#X connect 113 0 18 0;
#X connect 113 0 116 0;
#X connect 114 0 111 0;
#X connect 115 0 112 0;
#X connect 117 0 121 0;
#X connect 117 0 125 0;
#X connect 118 0 120 0;
#X connect 118 0 168 0;
#X connect 119 0 121 1;
#X connect 120 0 119 0;
#X connect 121 0 116 0;
#X connect 122 0 124 0;
#X connect 123 0 125 1;
#X connect 124 0 123 0;
#X connect 125 0 167 0;
#X connect 125 0 166 0;
#X connect 126 0 83 0;
#X connect 126 0 92 0;
#X connect 126 0 101 0;
#X connect 127 0 84 0;
#X connect 127 0 93 0;
#X connect 127 0 102 0;
#X connect 128 0 117 0;
#X connect 129 0 130 0;
#X connect 130 0 128 2;
#X connect 131 0 129 0;
#X connect 132 0 128 0;
#X connect 133 0 134 0;
#X connect 134 0 128 1;
#X connect 135 0 129 1;
#X connect 135 0 133 1;
#X connect 135 0 137 1;
#X connect 136 0 133 0;
#X connect 137 0 138 0;
#X connect 138 0 132 0;
#X connect 139 0 160 0;
#X connect 140 0 144 0;
#X connect 141 0 143 0;
#X connect 141 0 169 0;
#X connect 142 0 144 1;
#X connect 143 0 142 0;
#X connect 144 0 159 0;
#X connect 144 0 116 0;
#X connect 145 0 140 0;
#X connect 146 0 147 0;
#X connect 147 0 145 2;
#X connect 148 0 146 0;
#X connect 149 0 145 0;
#X connect 150 0 151 0;
#X connect 151 0 145 1;
#X connect 152 0 146 1;
#X connect 152 0 150 1;
#X connect 152 0 154 1;
#X connect 153 0 150 0;
#X connect 154 0 155 0;
#X connect 155 0 149 0;
#X connect 156 0 158 0;
#X connect 157 0 159 1;
#X connect 158 0 157 0;
#X connect 159 0 164 0;
#X connect 159 0 165 0;
#X connect 160 0 137 0;
#X connect 161 0 162 0;
#X connect 162 0 154 0;
#X connect 163 0 19 0;
#X connect 163 0 106 0;
#X connect 164 0 18 0;
#X connect 165 0 60 0;
#X connect 166 0 18 0;
#X connect 167 0 60 0;
#X connect 168 0 170 0;
#X connect 169 0 168 0;
#X connect 169 1 168 1;
#X connect 171 0 78 0;
#X connect 172 0 171 1;
#X connect 172 0 173 1;
#X connect 172 0 174 1;
#X connect 173 0 77 0;
#X connect 174 0 76 0;
#X connect 175 0 29 0;
#X connect 176 0 175 1;
#X connect 176 0 177 1;
#X connect 176 0 178 1;
#X connect 177 0 28 0;
#X connect 178 0 27 0;
#X connect 179 0 180 0;
#X connect 180 0 181 0;
#X connect 180 0 166 1;
#X connect 181 0 167 1;
#X connect 182 0 179 0;
#X connect 183 0 184 0;
#X connect 184 0 185 0;
#X connect 185 0 182 0;
#X connect 186 0 187 0;
#X connect 187 0 188 0;
#X connect 187 0 164 1;
#X connect 188 0 165 1;
#X connect 189 0 186 0;
#X connect 190 0 191 0;
#X connect 191 0 192 0;
#X connect 192 0 189 0;
