#N canvas -8 -8 1280 941 10;
#X obj 525 557 vsl 15 128 0 1 0 0 empty empty empty 0 -9 0 10 -262144
-1 -1 0 1;
#X floatatom 676 326 5 0 0 0 - - -;
#X obj 765 353 select 113;
#X obj 761 276 key;
#X obj 146 197 tgl 15 0 empty empty empty 17 7 0 10 -262144 -1 -1 1
1;
#X obj 149 164 r letra_q;
#X obj 777 415 s letra_q;
#X obj 235 490 pack f f;
#X floatatom 156 311 5 0 0 0 - - -;
#X msg 262 354 0;
#X msg 354 326 0;
#X obj 23 491 vsl 12 48 0 1 0 0 empty empty D 0 -9 0 10 -262144 -1
-1 2700 1;
#X floatatom 91 507 5 0 0 0 - - -;
#X obj 239 536 line;
#X obj 16 562 f;
#X obj 148 228 select 1;
#X obj 167 688 t b b;
#X obj 132 373 pipe;
#X obj 173 649 pipe;
#X obj 260 383 s adsrint;
#X obj 350 363 s adsrtpo;
#X obj 240 413 r adsrint;
#X obj 276 450 r adsrtpo;
#X obj 20 459 s adsrint;
#X obj 60 362 s adsrtpo;
#X obj 69 591 s adsrtpo;
#X obj 9 683 s adsrint;
#X obj 130 255 t b b b b b;
#X obj 124 412 t b b b;
#X floatatom 229 739 5 0 0 0 - - -;
#X msg 141 739 0;
#X obj 15 654 spigot 0;
#X obj 53 626 r atacar;
#X obj 280 201 s atacar;
#X obj 67 567 spigot 0;
#X obj 81 541 r atacar;
#X obj 190 822 s adsrtpo;
#X obj 193 794 spigot 0;
#X obj 231 763 r atacar;
#X obj 129 789 s adsrint;
#X obj 134 766 spigot 0;
#X obj 169 739 r atacar;
#X obj 331 700 t b b;
#X floatatom 393 751 5 0 0 0 - - -;
#X msg 301 771 0;
#X obj 354 834 s adsrtpo;
#X obj 293 801 s adsrint;
#X obj 331 620 r atacar;
#X obj 329 675 select 0;
#X msg 17 306 1;
#X obj 513 34 vsl 15 128 0.1 10000 1 0 empty empty empty 0 -9 0 10
-262144 -1 -1 4000 1;
#X floatatom 642 294 5 0 0 0 - - -;
#X obj 513 172 i;
#X obj 545 34 vsl 15 128 0.1 10000 1 0 empty empty empty 0 -9 0 10
-262144 -1 -1 8400 1;
#X obj 545 172 i;
#X obj 574 35 vsl 15 128 0.1 10000 1 0 empty empty empty 0 -9 0 10
-262144 -1 -1 1600 1;
#X obj 574 173 i;
#X obj 606 35 vsl 15 128 0.1 10000 1 0 empty empty empty 0 -9 0 10
-262144 -1 -1 1900 1;
#X obj 606 173 i;
#X connect 2 0 6 0;
#X connect 3 0 1 0;
#X connect 3 0 2 0;
#X connect 4 0 15 0;
#X connect 4 0 33 0;
#X connect 5 0 4 0;
#X connect 7 0 13 0;
#X connect 8 0 17 1;
#X connect 8 0 24 0;
#X connect 9 0 19 0;
#X connect 10 0 20 0;
#X connect 11 0 14 1;
#X connect 12 0 18 1;
#X connect 12 0 34 0;
#X connect 13 0 0 0;
#X connect 14 0 31 0;
#X connect 15 0 27 0;
#X connect 16 0 30 0;
#X connect 16 1 29 0;
#X connect 17 0 28 0;
#X connect 18 0 16 0;
#X connect 21 0 7 0;
#X connect 22 0 7 1;
#X connect 27 0 17 0;
#X connect 27 1 49 0;
#X connect 27 2 8 0;
#X connect 27 3 9 0;
#X connect 27 4 10 0;
#X connect 28 0 18 0;
#X connect 28 1 14 0;
#X connect 28 2 12 0;
#X connect 29 0 37 0;
#X connect 30 0 40 0;
#X connect 31 0 26 0;
#X connect 32 0 31 1;
#X connect 34 0 25 0;
#X connect 35 0 34 1;
#X connect 37 0 36 0;
#X connect 38 0 37 1;
#X connect 40 0 39 0;
#X connect 41 0 40 1;
#X connect 42 0 44 0;
#X connect 42 1 43 0;
#X connect 43 0 45 0;
#X connect 44 0 46 0;
#X connect 47 0 48 0;
#X connect 48 0 42 0;
#X connect 49 0 23 0;
#X connect 50 0 52 0;
#X connect 52 0 8 0;
#X connect 53 0 54 0;
#X connect 54 0 12 0;
#X connect 55 0 56 0;
#X connect 56 0 29 0;
#X connect 57 0 58 0;
#X connect 58 0 43 0;
