#N canvas 0 22 1366 698 10;
#X floatatom 255 330 5 0 0 0 - - -, f 5;
#X obj 255 308 r \$0-a0;
#X floatatom 305 330 5 0 0 0 - - -, f 5;
#X obj 305 308 r \$0-a1;
#X floatatom 355 329 5 0 0 0 - - -, f 5;
#X floatatom 405 329 5 0 0 0 - - -, f 5;
#X obj 355 307 r \$0-a2;
#X obj 405 307 r \$0-a3;
#X floatatom 455 325 5 0 0 0 - - -, f 5;
#X obj 455 303 r \$0-a4;
#N canvas 760 99 450 300 ardu5 0;
#X obj 259 92 arduino 4;
#X msg 167 14 devices;
#X msg 32 69 open 4;
#X msg 262 67 analogIns \$1 1;
#X obj 252 -20 bng 15 250 50 0 empty empty empty 17 7 0 10 -262144
-1 -1;
#X obj 252 0 t b b b b b;
#X msg 252 33 0;
#X msg 282 33 1;
#X msg 311 34 2;
#X msg 345 34 3;
#X msg 373 34 4;
#X obj 259 114 route analog;
#X obj 259 136 route 0 1 2 3 4;
#X obj 205 174 s \$0-a0;
#X obj 258 193 s \$0-a1;
#X obj 291 172 s \$0-a2;
#X obj 329 201 s \$0-a3;
#X obj 383 180 s \$0-a4;
#X connect 0 0 11 0;
#X connect 1 0 0 0;
#X connect 2 0 0 0;
#X connect 3 0 0 0;
#X connect 4 0 5 0;
#X connect 5 0 6 0;
#X connect 5 1 7 0;
#X connect 5 2 8 0;
#X connect 5 3 9 0;
#X connect 5 4 10 0;
#X connect 6 0 3 0;
#X connect 7 0 3 0;
#X connect 8 0 3 0;
#X connect 9 0 3 0;
#X connect 10 0 3 0;
#X connect 11 0 12 0;
#X connect 12 0 13 0;
#X connect 12 1 14 0;
#X connect 12 2 15 0;
#X connect 12 3 16 0;
#X connect 12 4 17 0;
#X restore 686 113 pd ardu5;
#X obj 614 184 r \$0-a0;
#X obj 614 206 * 127;
#X obj 614 228 mtof;
#X obj 614 250 pack f 20;
#X obj 614 272 line~;
#X obj 614 294 osc~;
#X obj 652 292 pack f 20;
#X obj 652 314 line~;
#X obj 614 316 *~;
#X obj 653 273 hsl 82 16 0 1 0 0 empty empty empty -2 -8 0 10 -262144
-1 -1 4500 1;
#X obj 727 499 pack f 20;
#X obj 727 521 line~;
#X obj 689 523 *~;
#X obj 728 480 hsl 82 16 0 1 0 0 empty empty empty -2 -8 0 10 -262144
-1 -1 6000 1;
#X obj 689 545 dac~;
#X obj 803 199 r \$0-a0;
#X obj 803 221 * 127;
#X obj 803 243 mtof;
#X obj 803 265 pack f 20;
#X obj 803 287 line~;
#X obj 803 309 osc~;
#X obj 803 331 expr~ $v1 * 0.5 + 0.5;
#X obj 803 353 expr~ $v1 * $v2 + $v3;
#X obj 875 235 * 127;
#X obj 875 257 mtof;
#X obj 875 279 pack f 20;
#X obj 875 301 line~;
#X obj 875 213 r \$0-a1;
#X obj 944 224 * 127;
#X obj 944 246 mtof;
#X obj 944 268 pack f 20;
#X obj 944 290 line~;
#X obj 944 202 r \$0-a2;
#X obj 969 474 pack f 20;
#X obj 969 496 line~;
#X obj 931 498 *~;
#X floatatom 1147 237 5 0 0 0 - - -, f 5;
#X obj 803 375 osc~;
#X obj 1073 279 pack f 20;
#X obj 1073 301 line~;
#X obj 1073 323 osc~;
#X obj 1073 345 expr~ $v1 * 0.5 + 0.5;
#X obj 1076 215 r \$0-a3;
#X obj 818 412 *~;
#X obj 1076 237 * 64;
#X obj 964 438 r \$0-a4;
#X connect 1 0 0 0;
#X connect 3 0 2 0;
#X connect 6 0 4 0;
#X connect 7 0 5 0;
#X connect 9 0 8 0;
#X connect 11 0 12 0;
#X connect 12 0 13 0;
#X connect 13 0 14 0;
#X connect 14 0 15 0;
#X connect 15 0 16 0;
#X connect 16 0 19 0;
#X connect 17 0 18 0;
#X connect 18 0 19 1;
#X connect 20 0 17 0;
#X connect 21 0 22 0;
#X connect 22 0 23 1;
#X connect 23 0 25 0;
#X connect 23 0 25 1;
#X connect 24 0 21 0;
#X connect 26 0 27 0;
#X connect 27 0 28 0;
#X connect 28 0 29 0;
#X connect 29 0 30 0;
#X connect 30 0 31 0;
#X connect 31 0 32 0;
#X connect 32 0 33 0;
#X connect 33 0 48 0;
#X connect 34 0 35 0;
#X connect 35 0 36 0;
#X connect 36 0 37 0;
#X connect 37 0 33 1;
#X connect 38 0 34 0;
#X connect 39 0 40 0;
#X connect 40 0 41 0;
#X connect 41 0 42 0;
#X connect 42 0 33 2;
#X connect 43 0 39 0;
#X connect 44 0 45 0;
#X connect 45 0 46 1;
#X connect 46 0 23 0;
#X connect 48 0 54 0;
#X connect 49 0 50 0;
#X connect 50 0 51 0;
#X connect 51 0 52 0;
#X connect 52 0 54 1;
#X connect 53 0 55 0;
#X connect 54 0 46 0;
#X connect 55 0 49 0;
#X connect 55 0 47 0;
#X connect 56 0 44 0;
