#N canvas 193 26 1057 498 10;
#X obj 180 339 dac~;
#X obj 178 305 hip~ 50;
#X obj 152 306 *~;
#X obj 293 250 vsl 15 64 0 1 0 0 empty empty empty 0 -9 0 10 -262144
-1 -1 6000 1;
#X obj 230 294 pack f 80;
#X obj 232 321 line~;
#X obj 152 282 clip~ -1 1;
#X floatatom 465 40 5 0 0 0 - - -, f 5;
#X floatatom 500 60 5 0 0 0 - - -, f 5;
#X obj 321 159 +~;
#X obj 495 124 *~;
#X obj 546 -17 vsl 15 64 -1 1 0 0 empty empty empty 0 -9 0 10 -262144
-1 -1 950 1;
#X obj 547 75 pack f 80;
#X obj 549 102 line~;
#X obj 93 17 noise~;
#X obj 105 63 *~;
#X obj 204 -11 vsl 15 64 0 1 0 0 empty empty empty 0 -9 0 10 -262144
-1 -1 5450 1;
#X obj 137 13 pack f 80;
#X obj 139 40 line~;
#X obj 312 70 *~, f 6;
#X obj 415 -52 vsl 15 64 0 1 0 0 empty empty empty 0 -9 0 10 -262144
-1 -1 5900 1;
#X obj 348 6 pack f 80;
#X obj 348 28 line~;
#X obj 308 4 adc~;
#X obj 34 142 chrdel~ 1;
#X floatatom 577 159 5 0 0 0 - - -, f 5;
#X floatatom 616 168 5 0 0 0 - - -, f 5;
#X obj 887 197 vsl 15 64 -1 1 0 0 empty empty empty 0 -9 0 10 -262144
-1 -1 1000 1;
#X obj 888 289 pack f 80;
#X obj 890 316 line~;
#X floatatom 922 250 5 0 0 0 - - -, f 5;
#X obj 563 226 *~ -0.65;
#X obj 459 101 bp~ 54 2;
#X obj 563 194 bp~ 504 1;
#X floatatom 681 205 5 0 0 0 - - -, f 5;
#X floatatom 716 225 5 0 0 0 - - -, f 5;
#X obj 711 289 *~;
#X obj 762 148 vsl 15 64 -1 1 0 0 empty empty empty 0 -9 0 10 -262144
-1 -1 400 1;
#X obj 763 240 pack f 80;
#X obj 765 267 line~;
#X obj 675 266 bp~ 54 2;
#X connect 1 0 0 0;
#X connect 1 0 0 1;
#X connect 2 0 1 0;
#X connect 3 0 4 0;
#X connect 4 0 5 0;
#X connect 5 0 2 1;
#X connect 6 0 2 0;
#X connect 7 0 32 1;
#X connect 8 0 32 2;
#X connect 9 0 24 0;
#X connect 10 0 33 0;
#X connect 11 0 12 0;
#X connect 12 0 13 0;
#X connect 13 0 10 1;
#X connect 14 0 15 0;
#X connect 16 0 17 0;
#X connect 17 0 18 0;
#X connect 18 0 15 1;
#X connect 19 0 9 0;
#X connect 19 0 32 0;
#X connect 20 0 21 0;
#X connect 21 0 22 0;
#X connect 22 0 19 1;
#X connect 23 0 19 0;
#X connect 23 1 19 0;
#X connect 24 0 6 0;
#X connect 25 0 33 1;
#X connect 26 0 33 2;
#X connect 27 0 28 0;
#X connect 27 0 30 0;
#X connect 28 0 29 0;
#X connect 31 0 40 0;
#X connect 32 0 10 0;
#X connect 33 0 31 0;
#X connect 34 0 40 1;
#X connect 35 0 40 2;
#X connect 36 0 9 1;
#X connect 37 0 38 0;
#X connect 38 0 39 0;
#X connect 39 0 36 1;
#X connect 40 0 36 0;
