#N canvas -8 -8 1280 941 10;
#X obj 596 475 expr~ $v1 * $v2 + $v3;
#X obj 710 414 pack f f;
#X obj 711 436 line~;
#X floatatom 752 386 5 0 0 0 - - -;
#X floatatom 706 377 5 0 0 0 - - -;
#X obj 596 599 *~;
#X obj 682 517 vsl 15 64 0 1 0 0 empty empty empty 0 -9 0 10 -262144
-1 -1 4600 1;
#X obj 615 537 pack f 80;
#X obj 617 564 line~;
#X obj 611 720 dac~;
#X obj 607 686 hip~ 50;
#X obj 625 659 *~;
#X obj 690 635 vsl 15 64 0 1 0 0 empty empty empty 0 -9 0 10 -262144
-1 -1 2400 1;
#X obj 636 608 pack f 80;
#X obj 638 635 line~;
#X obj 434 468 phasor~;
#X obj 414 567 expr~ $v1 * 2- 1;
#X obj 571 421 osc~;
#X obj 570 446 expr~ $v1 * 0.5 + 0.5;
#X obj 535 225 metro 20;
#X floatatom 618 207 5 0 0 0 - - -;
#X floatatom 574 189 5 0 0 0 - - -;
#X obj 673 250 random 1000;
#X obj 662 217 metro 20;
#X floatatom 745 199 5 0 0 0 - - -;
#X floatatom 705 189 5 0 0 0 - - -;
#X obj 650 179 tgl 15 0 empty empty empty 17 7 0 10 -262144 -1 -1 1
1;
#X obj 543 170 tgl 15 0 empty empty empty 17 7 0 10 -262144 -1 -1 1
1;
#X obj 586 119 tgl 15 0 empty empty empty 17 7 0 10 -262144 -1 -1 1
1;
#X floatatom 700 61 5 0 0 0 - - -;
#X floatatom 616 107 5 0 0 0 - - -;
#X obj 526 342 pack f f;
#X obj 527 364 line~;
#X obj 664 339 pack f f;
#X obj 665 361 line~;
#X floatatom 574 295 5 0 0 0 - - -;
#X floatatom 709 303 5 0 0 0 - - -;
#X floatatom 636 278 5 0 0 0 - - -;
#X obj 458 652 delwrite~ lacaga 8000;
#X obj 997 607 vd~ lacaga;
#X obj 832 736 *~;
#X obj 895 706 vsl 15 64 0.01 1 1 0 empty empty empty 0 -9 0 10 -262144
-1 -1 6265 1;
#X obj 841 679 pack f 80;
#X obj 843 706 line~;
#X obj 961 727 *~;
#X obj 1026 703 vsl 15 64 0 1 0 0 empty empty empty 0 -9 0 10 -262144
-1 -1 5600 1;
#X obj 972 676 pack f 80;
#X obj 974 703 line~;
#X obj 540 247 random 10000;
#X obj 945 557 expr~ $v1 * $v2 + $v3;
#X obj 1057 477 pack f f;
#X obj 1058 499 line~;
#X floatatom 1099 449 5 0 0 0 - - -;
#X floatatom 1053 437 5 0 0 0 - - -;
#X obj 918 484 osc~;
#X obj 917 509 expr~ $v1 * 0.5 + 0.5;
#X obj 989 462 pack f f;
#X obj 990 484 line~;
#X floatatom 1002 396 5 0 0 0 - - -;
#X obj 840 426 * 0.01;
#X obj 837 451 pack f f;
#X obj 838 473 line~;
#X floatatom 899 392 5 0 0 0 - - -;
#X msg 448 276 0.001;
#X msg 451 252 0.01;
#X obj 272 621 vcf~;
#X floatatom 320 613 5 0 0 0 - - -;
#X obj 267 469 expr~ $v1 * $v2 + $v3;
#X obj 381 408 pack f f;
#X obj 382 430 line~;
#X floatatom 423 380 5 0 0 0 - - -;
#X floatatom 377 368 5 0 0 0 - - -;
#X obj 242 415 osc~;
#X obj 241 440 expr~ $v1 * 0.5 + 0.5;
#X obj 335 333 pack f f;
#X obj 336 355 line~;
#X floatatom 379 305 5 0 0 0 - - -;
#X floatatom 333 293 5 0 0 0 - - -;
#X obj 225 350 pack f f;
#X obj 223 381 line~;
#X floatatom 269 294 5 0 0 0 - - -;
#X floatatom 223 282 5 0 0 0 - - -;
#X obj 178 329 * 0.01;
#X msg 113 307 0.001;
#X msg 116 283 0.01;
#X msg 909 353 0.001;
#X msg 912 329 0.01;
#X obj 31 674 vcf~;
#X floatatom 79 666 5 0 0 0 - - -;
#X obj 26 522 expr~ $v1 * $v2 + $v3;
#X obj 140 461 pack f f;
#X obj 141 483 line~;
#X floatatom 182 433 5 0 0 0 - - -;
#X floatatom 136 421 5 0 0 0 - - -;
#X obj 1 468 osc~;
#X obj 0 493 expr~ $v1 * 0.5 + 0.5;
#X obj 94 386 pack f f;
#X obj 95 408 line~;
#X floatatom 138 358 5 0 0 0 - - -;
#X floatatom 92 346 5 0 0 0 - - -;
#X obj -16 403 pack f f;
#X obj -18 434 line~;
#X floatatom 28 347 5 0 0 0 - - -;
#X floatatom -18 335 5 0 0 0 - - -;
#X obj -63 382 * 0.01;
#X msg -128 360 0.001;
#X msg -125 336 0.01;
#X obj 939 673 vsl 11 64 0.95 1 1 0 empty empty empty 0 -9 0 10 -258113
-1 -1 3200 1;
#X obj 426 532 clip~ -1 1;
#X obj 446 502 *~ 50;
#X floatatom 496 502 5 0 0 0 - - -;
#X floatatom 169 587 5 0 0 0 - - -;
#X obj 1062 296 vsl 15 64 0 8000 0 0 empty empty empty 0 -9 0 10 -262144
-1 -1 800 1;
#X msg 475 215 1;
#X obj 1117 384 i;
#X obj 782 300 mtof;
#X floatatom 836 333 5 0 0 0 - - -;
#X obj 801 214 random 1000;
#X obj 790 181 metro 20;
#X floatatom 873 163 5 0 0 0 - - -;
#X floatatom 833 153 5 0 0 0 - - -;
#X obj 778 143 tgl 15 0 empty empty empty 17 7 0 10 -262144 -1 -1 1
1;
#X obj 810 244 +;
#X floatatom 848 242 5 0 0 0 - - -;
#X floatatom 526 78 5 0 0 0 - - -;
#X obj 809 370 +;
#X floatatom 837 371 5 0 0 0 - - -;
#X obj 513 298 * 1;
#X connect 0 0 15 0;
#X connect 1 0 2 0;
#X connect 2 0 0 2;
#X connect 3 0 1 1;
#X connect 4 0 1 0;
#X connect 5 0 11 0;
#X connect 5 0 38 0;
#X connect 6 0 7 0;
#X connect 7 0 8 0;
#X connect 8 0 5 1;
#X connect 10 0 9 0;
#X connect 10 0 9 1;
#X connect 11 0 10 0;
#X connect 12 0 13 0;
#X connect 13 0 14 0;
#X connect 14 0 11 1;
#X connect 15 0 109 0;
#X connect 16 0 65 0;
#X connect 16 0 87 0;
#X connect 17 0 18 0;
#X connect 18 0 0 0;
#X connect 19 0 48 0;
#X connect 20 0 48 1;
#X connect 21 0 19 1;
#X connect 22 0 33 0;
#X connect 23 0 22 0;
#X connect 24 0 22 1;
#X connect 25 0 23 1;
#X connect 26 0 23 0;
#X connect 27 0 19 0;
#X connect 28 0 27 0;
#X connect 28 0 26 0;
#X connect 29 0 20 0;
#X connect 29 0 24 0;
#X connect 30 0 21 0;
#X connect 30 0 25 0;
#X connect 30 0 120 0;
#X connect 31 0 32 0;
#X connect 32 0 17 0;
#X connect 33 0 34 0;
#X connect 34 0 0 1;
#X connect 35 0 31 1;
#X connect 36 0 33 1;
#X connect 37 0 36 0;
#X connect 37 0 35 0;
#X connect 37 0 3 0;
#X connect 37 0 70 0;
#X connect 39 0 40 0;
#X connect 39 0 44 0;
#X connect 40 0 38 0;
#X connect 41 0 42 0;
#X connect 42 0 43 0;
#X connect 43 0 40 1;
#X connect 44 0 11 0;
#X connect 45 0 46 0;
#X connect 46 0 47 0;
#X connect 47 0 44 1;
#X connect 48 0 127 0;
#X connect 49 0 39 0;
#X connect 50 0 51 0;
#X connect 51 0 49 2;
#X connect 52 0 50 1;
#X connect 52 0 56 1;
#X connect 52 0 60 1;
#X connect 53 0 50 0;
#X connect 54 0 55 0;
#X connect 55 0 49 0;
#X connect 56 0 57 0;
#X connect 57 0 49 1;
#X connect 58 0 56 0;
#X connect 59 0 60 0;
#X connect 60 0 61 0;
#X connect 61 0 54 0;
#X connect 62 0 59 0;
#X connect 63 0 127 1;
#X connect 64 0 127 1;
#X connect 65 0 5 0;
#X connect 66 0 65 2;
#X connect 67 0 65 1;
#X connect 68 0 69 0;
#X connect 69 0 67 2;
#X connect 70 0 68 1;
#X connect 71 0 68 0;
#X connect 72 0 73 0;
#X connect 73 0 67 0;
#X connect 74 0 75 0;
#X connect 75 0 67 1;
#X connect 76 0 74 1;
#X connect 77 0 74 0;
#X connect 78 0 79 0;
#X connect 79 0 72 0;
#X connect 80 0 78 1;
#X connect 81 0 82 0;
#X connect 82 0 78 0;
#X connect 83 0 82 1;
#X connect 84 0 82 1;
#X connect 85 0 59 1;
#X connect 86 0 59 1;
#X connect 87 0 5 0;
#X connect 88 0 87 2;
#X connect 89 0 87 1;
#X connect 90 0 91 0;
#X connect 91 0 89 2;
#X connect 92 0 90 1;
#X connect 93 0 90 0;
#X connect 94 0 95 0;
#X connect 95 0 89 0;
#X connect 96 0 97 0;
#X connect 97 0 89 1;
#X connect 98 0 96 1;
#X connect 99 0 96 0;
#X connect 100 0 101 0;
#X connect 101 0 94 0;
#X connect 102 0 100 1;
#X connect 103 0 104 0;
#X connect 104 0 100 0;
#X connect 105 0 104 1;
#X connect 106 0 104 1;
#X connect 107 0 41 0;
#X connect 108 0 16 0;
#X connect 109 0 108 0;
#X connect 110 0 109 1;
#X connect 111 0 88 0;
#X connect 111 0 66 0;
#X connect 112 0 114 0;
#X connect 113 0 127 1;
#X connect 114 0 53 0;
#X connect 115 0 4 0;
#X connect 116 0 125 0;
#X connect 117 0 122 0;
#X connect 118 0 117 0;
#X connect 119 0 117 1;
#X connect 120 0 118 1;
#X connect 121 0 118 0;
#X connect 122 0 116 0;
#X connect 123 0 122 1;
#X connect 124 0 30 0;
#X connect 124 0 37 0;
#X connect 125 0 115 0;
#X connect 126 0 125 1;
#X connect 127 0 31 0;
