#N canvas 1 26 1364 691 10;
#X obj 201 455 *~;
#X obj 287 377 vsl 15 64 0 1 0 0 empty empty empty 0 -9 0 10 -262144
-1 -1 1200 1;
#X obj 214 411 pack f 80;
#X obj 214 433 line~;
#X obj 151 650 dac~;
#X obj 150 609 hip~ 50;
#X obj 165 579 *~;
#X obj 266 516 vsl 15 64 0 1 0 0 empty empty empty 0 -9 0 10 -262144
-1 -1 1100 1;
#X obj 196 525 pack f 80;
#X obj 198 552 line~;
#N canvas 1 26 1366 719 barridofiltro 0;
#X obj 87 441 vcf~;
#X obj 143 416 expr~ $v1 * $v2 + $v3;
#X obj 140 367 osc~;
#X obj 140 347 line~;
#X obj 140 288 * 0.01;
#X floatatom 132 121 5 0 0 0 rate - -, f 5;
#X obj 144 234 expr pow(10 \, -$f1);
#X obj 146 259 t b f;
#X obj 198 346 pack f f;
#X obj 198 366 line~;
#X obj 257 365 line~;
#X obj 264 307 mtof;
#X floatatom 186 159 5 0 0 0 base-note - -, f 5;
#X obj 205 318 *;
#X obj 189 277 t b f;
#X obj 139 392 expr~ $v1 * 0.5 + 0.5;
#X obj 167 127 hradio 11 0 0 4 empty empty rate\ *\ 10^-x -4 -5 0 8
-262144 -1 -108187 3;
#X obj 133 141 hsl 60 15 30 3000 1 0 empty empty depth 10 5 0 10 -262144
-1 -1 5700 1;
#X obj 36 390 inlet~;
#X obj 110 588 outlet~;
#X obj 132 178 hsl 60 15 0.5 100 1 0 empty empty Q 12 5 0 10 -262144
-1 -1 4400 1;
#X obj 140 326 pack f 20;
#X obj 257 345 pack f 20;
#X obj 26 421 expr $f1 * -1 + 1;
#X obj 225 126 vsl 15 64 0 1 0 0 empty empty wet 0 12 1 10 -1 -262144
-262144 6050 1;
#X obj 27 441 pack f 20;
#X obj 27 463 line~;
#X obj 34 487 *~, f 5;
#X obj 249 470 pack f 20;
#X obj 249 492 line~;
#X obj 217 520 *~, f 5;
#X obj 142 548 +~;
#X floatatom 380 437 5 0 0 0 - - -, f 5;
#X connect 0 0 30 0;
#X connect 1 0 0 1;
#X connect 2 0 15 0;
#X connect 3 0 2 0;
#X connect 4 0 21 0;
#X connect 5 0 4 0;
#X connect 6 0 7 0;
#X connect 7 0 5 0;
#X connect 7 1 4 1;
#X connect 8 0 9 0;
#X connect 9 0 1 1;
#X connect 10 0 1 2;
#X connect 11 0 13 0;
#X connect 11 0 22 0;
#X connect 12 0 11 0;
#X connect 13 0 8 0;
#X connect 14 0 13 0;
#X connect 14 1 13 1;
#X connect 15 0 1 0;
#X connect 16 0 6 0;
#X connect 17 0 14 0;
#X connect 18 0 0 0;
#X connect 18 0 27 0;
#X connect 20 0 0 2;
#X connect 21 0 3 0;
#X connect 22 0 10 0;
#X connect 23 0 32 0;
#X connect 23 0 25 0;
#X connect 24 0 23 0;
#X connect 24 0 28 0;
#X connect 25 0 26 0;
#X connect 26 0 27 1;
#X connect 27 0 31 0;
#X connect 28 0 29 0;
#X connect 29 0 30 1;
#X connect 30 0 31 1;
#X connect 31 0 19 0;
#X coords 0 -1 1 1 145 99 1 100 100;
#X restore 326 291 pd barridofiltro;
#X text 297 263 falta poder elegir tipo de onda en el filtro;
#N canvas 0 25 1366 719 2xmodul 0;
#X obj 316 241 expr~ $v1 * $v2 + $v3;
#X obj 211 288 phasor~;
#X obj 314 197 osc~;
#X obj 315 218 expr~ $v1 * 0.5 + 0.5;
#X obj 317 153 pack f f;
#X obj 315 176 line~;
#X obj 329 426 clip~ -1 1;
#X obj 331 395 *~ 50;
#X obj 210 310 expr~ $v1 * 2- 1;
#X obj 202 162 vsl 15 64 0.7 1000 1 0 empty empty drive -2 -9 0 10
-262144 -1 -1 4100 1;
#X obj 317 127 mtof;
#X floatatom 105 127 5 0 0 2 mod - -, f 5;
#X floatatom 134 213 5 0 0 2 porta - -, f 5;
#X obj 378 174 pack f f;
#X obj 374 197 line~;
#X obj 446 167 pack f f;
#X obj 442 195 line~;
#X obj 449 137 mtof;
#X floatatom 180 128 5 0 0 2 base-note - -, f 5;
#X obj 381 149 *;
#X floatatom 142 127 5 0 0 2 depth - -, f 5;
#X obj 381 115 t b f;
#X obj 344 296 phasor~;
#X obj 343 318 expr~ $v1 * 2- 1;
#X obj 348 345 *~ 2;
#X obj 256 389 *~;
#X obj 109 162 vsl 15 64 0.01 1 1 0 empty empty fund -3 -9 0 10 -262144
-1 -1 4450 1;
#X obj 265 332 pack f 80;
#X obj 267 359 line~;
#X obj 442 377 *~;
#X obj 177 162 vsl 15 64 0.01 1 1 0 empty empty x2 0 -9 0 10 -262144
-1 -1 4800 1;
#X obj 451 320 pack f 80;
#X obj 453 347 line~;
#X obj 130 170 hsl 36 15 0.8 1.2 0 0 empty empty fine 12 5 0 10 -262144
-1 -1 2750 1;
#X msg 46 188 1;
#X obj 104 78 inlet;
#X obj 143 78 inlet;
#X obj 180 79 inlet;
#X obj 329 459 outlet~;
#X obj 141 149 bng 15 250 50 0 empty empty 1 17 7 0 10 -262144 -1 -1
;
#X connect 0 0 1 0;
#X connect 0 0 22 0;
#X connect 1 0 8 0;
#X connect 2 0 3 0;
#X connect 3 0 0 0;
#X connect 4 0 5 0;
#X connect 5 0 2 0;
#X connect 6 0 38 0;
#X connect 7 0 6 0;
#X connect 8 0 25 0;
#X connect 9 0 7 1;
#X connect 10 0 4 0;
#X connect 11 0 10 0;
#X connect 12 0 15 1;
#X connect 12 0 13 1;
#X connect 12 0 4 1;
#X connect 13 0 14 0;
#X connect 14 0 0 1;
#X connect 15 0 16 0;
#X connect 16 0 0 2;
#X connect 17 0 15 0;
#X connect 17 0 19 0;
#X connect 18 0 17 0;
#X connect 19 0 13 0;
#X connect 20 0 21 0;
#X connect 21 0 19 0;
#X connect 21 1 19 1;
#X connect 22 0 23 0;
#X connect 23 0 24 0;
#X connect 24 0 29 0;
#X connect 25 0 7 0;
#X connect 26 0 27 0;
#X connect 27 0 28 0;
#X connect 28 0 25 1;
#X connect 29 0 7 0;
#X connect 30 0 31 0;
#X connect 31 0 32 0;
#X connect 32 0 29 1;
#X connect 33 0 24 1;
#X connect 34 0 33 0;
#X connect 35 0 11 0;
#X connect 36 0 20 0;
#X connect 37 0 18 0;
#X connect 39 0 34 0;
#X coords 0 -1 1 1 137 141 1 100 100;
#X restore 333 106 pd 2xmodul;
#X obj 352 426 chrdel~ 12;
#X msg 940 228 \; pd dsp 1;
#X obj 294 38 metro 50;
#X obj 294 60 random 60;
#X obj 294 82 + 20;
#X obj 297 13 tgl 15 0 empty empty empty 17 7 0 10 -262144 -1 -1 1
1;
#X floatatom 353 14 5 0 0 0 - - -, f 5;
#X floatatom 359 59 5 0 0 0 - - -, f 5;
#X obj 418 32 metro 50;
#X obj 418 54 random 60;
#X obj 418 76 + 20;
#X obj 421 7 tgl 15 0 empty empty empty 17 7 0 10 -262144 -1 -1 1 1
;
#X floatatom 477 8 5 0 0 0 - - -, f 5;
#X floatatom 480 33 5 0 0 0 - - -, f 5;
#X floatatom 483 53 5 0 0 0 - - -, f 5;
#X obj 538 35 metro 50;
#X obj 538 57 random 60;
#X obj 538 79 + 20;
#X obj 541 10 tgl 15 0 empty empty empty 17 7 0 10 -262144 -1 -1 1
1;
#X floatatom 595 4 5 0 0 0 - - -, f 5;
#X floatatom 597 32 5 0 0 0 - - -, f 5;
#X floatatom 603 56 5 0 0 0 - - -, f 5;
#X obj 253 615 *~;
#X obj 295 562 pack f 80;
#X obj 297 589 line~;
#X obj 221 641 hip~ 50;
#X obj 579 421 chrdel~ 13;
#X floatatom 371 34 5 0 0 0 - - -, f 5;
#X connect 0 0 6 0;
#X connect 0 0 35 0;
#X connect 1 0 2 0;
#X connect 2 0 3 0;
#X connect 3 0 0 1;
#X connect 5 0 4 0;
#X connect 6 0 5 0;
#X connect 7 0 8 0;
#X connect 7 0 36 0;
#X connect 8 0 9 0;
#X connect 9 0 6 1;
#X connect 10 0 0 0;
#X connect 10 0 13 0;
#X connect 10 0 39 0;
#X connect 12 0 10 0;
#X connect 13 0 6 0;
#X connect 15 0 16 0;
#X connect 16 0 17 0;
#X connect 17 0 12 0;
#X connect 18 0 15 0;
#X connect 19 0 15 1;
#X connect 20 0 17 1;
#X connect 21 0 22 0;
#X connect 22 0 23 0;
#X connect 23 0 12 1;
#X connect 24 0 21 0;
#X connect 25 0 21 1;
#X connect 26 0 22 1;
#X connect 27 0 23 1;
#X connect 28 0 29 0;
#X connect 29 0 30 0;
#X connect 30 0 12 2;
#X connect 31 0 28 0;
#X connect 32 0 28 1;
#X connect 33 0 29 1;
#X connect 34 0 30 1;
#X connect 35 0 38 0;
#X connect 36 0 37 0;
#X connect 37 0 35 1;
#X connect 38 0 4 1;
#X connect 39 0 35 0;
#X connect 40 0 16 1;
