#N canvas -8 -8 1280 941 10;
#X obj 89 894 dac~;
#X obj 50 396 osc~;
#X obj 42 456 *~ 200;
#X obj 43 484 clip~ -0.9 0.9;
#X obj 109 538 *~;
#X obj 233 499 vsl 15 64 0 1 0 0 empty empty empty 0 -9 0 10 -262144
-1 -1 3700 1;
#X obj 86 841 *~;
#X obj 127 786 vsl 15 64 0 1 0 0 empty empty empty 0 -9 0 10 -262144
-1 -1 5900 1;
#X obj 43 74 random 60;
#X obj 202 53 metro 200;
#X floatatom 585 63 5 0 0 0 - - -;
#X obj 598 228 % 2;
#X obj 590 175 f;
#X obj 595 205 + 1;
#X obj 598 255 tgl 15 0 empty empty empty 17 7 0 10 -262144 -1 -1 0
1;
#X floatatom 123 248 5 0 0 0 - - -;
#X floatatom 167 19 5 0 0 0 - - -;
#X obj 44 134 + 12;
#X obj 130 379 vsl 15 64 0.9 2000 1 0 empty empty empty 0 -9 0 10 -262144
-1 -1 0 1;
#X obj 138 601 delwrite~ delayyyy 6000;
#X obj 366 659 vd~ delayyyy 6000;
#X floatatom 348 460 5 0 0 0 - - -;
#X obj 376 611 line~;
#X obj 381 541 pack f f;
#X floatatom 429 496 5 0 0 0 - - -;
#X obj 263 777 *~;
#X obj 311 643 vsl 15 64 0 1 0 0 empty empty empty 0 -9 0 10 -262144
-1 -1 0 1;
#X obj 254 678 *~;
#X obj 302 544 vsl 15 64 0 1 0 0 empty empty empty 0 -9 0 10 -262144
-1 -1 6000 1;
#X floatatom 118 133 5 0 0 0 - - -;
#X floatatom 277 375 5 0 0 0 - - -;
#X obj 253 396 +;
#X obj 252 263 *;
#X obj 355 253 hradio 15 1 0 8 empty empty empty 0 -8 0 10 -262144
-1 -1 7;
#X obj 363 282 + 1;
#X floatatom 342 20 5 0 0 0 - - -;
#X msg 303 357 0;
#X obj 378 392 bng 15 250 50 0 empty empty empty 17 7 0 10 -262144
-1 -1;
#X obj 633 390 line~;
#X obj 641 312 pack f f;
#X obj 71 521 *~;
#X obj 850 283 expr 1 / $f1;
#X obj 723 246 *;
#X obj 850 223 hradio 15 1 0 4 empty empty empty 0 -8 0 10 -262144
-1 -1 3;
#X obj 858 252 + 1;
#X obj 795 303 bng 15 250 50 0 empty empty empty 17 7 0 10 -262144
-1 -1;
#N canvas 0 50 450 250 (subpatch) 0;
#X array sec 8 float 3;
#A 0 70.7571 88.9 70.7571 92.5286 66.2214 87.9929 69.85 86.1786;
#X coords 0 127 8 0 200 140 1 0 0;
#X restore 911 493 graph;
#X obj 178 188 tabread sec;
#X obj 721 729 tabwrite sec;
#X obj 792 623 f;
#X obj 797 653 + 1;
#X obj 800 676 % 8;
#X obj 660 679 random 60;
#X floatatom 726 625 5 0 0 0 - - -;
#X obj 710 458 bng 15 250 50 0 empty empty empty 17 7 0 10 -262144
-1 -1;
#X obj 737 521 t b b;
#X obj 183 103 f;
#X obj 188 133 + 1;
#X obj 191 156 % 8;
#X floatatom 742 689 5 0 0 0 - - -;
#X obj 50 172 line~;
#X obj 178 221 pack f f;
#X obj 40 201 mtof~;
#X floatatom 231 148 5 0 0 0 - - -;
#X floatatom 463 170 5 0 0 0 - - -;
#X obj 248 101 f;
#X obj 1095 242;
#X connect 1 0 2 0;
#X connect 2 0 3 0;
#X connect 3 0 40 0;
#X connect 4 0 6 0;
#X connect 4 0 19 0;
#X connect 5 0 4 1;
#X connect 6 0 0 1;
#X connect 6 0 0 0;
#X connect 7 0 6 1;
#X connect 9 0 12 0;
#X connect 9 0 8 0;
#X connect 9 0 56 0;
#X connect 10 0 9 1;
#X connect 10 0 42 0;
#X connect 11 0 14 0;
#X connect 12 0 13 0;
#X connect 13 0 12 1;
#X connect 13 0 11 0;
#X connect 14 0 39 0;
#X connect 16 0 8 1;
#X connect 18 0 2 1;
#X connect 20 0 25 0;
#X connect 20 0 27 0;
#X connect 21 0 23 0;
#X connect 22 0 20 0;
#X connect 23 0 22 0;
#X connect 24 0 23 1;
#X connect 25 0 6 0;
#X connect 26 0 25 1;
#X connect 27 0 19 0;
#X connect 28 0 27 1;
#X connect 30 0 31 1;
#X connect 30 0 37 0;
#X connect 31 0 21 0;
#X connect 32 0 31 0;
#X connect 33 0 34 0;
#X connect 34 0 32 1;
#X connect 34 0 37 0;
#X connect 35 0 10 0;
#X connect 35 0 32 0;
#X connect 35 0 65 1;
#X connect 36 0 30 0;
#X connect 37 0 32 0;
#X connect 38 0 40 1;
#X connect 39 0 38 0;
#X connect 40 0 4 0;
#X connect 41 0 42 1;
#X connect 42 0 39 1;
#X connect 43 0 44 0;
#X connect 44 0 41 0;
#X connect 44 0 45 0;
#X connect 45 0 10 0;
#X connect 47 0 17 0;
#X connect 47 0 61 0;
#X connect 49 0 50 0;
#X connect 50 0 49 1;
#X connect 50 0 51 0;
#X connect 51 0 48 1;
#X connect 52 0 48 0;
#X connect 53 0 52 1;
#X connect 54 0 55 0;
#X connect 55 0 52 0;
#X connect 55 1 49 0;
#X connect 56 0 57 0;
#X connect 57 0 56 1;
#X connect 57 0 58 0;
#X connect 58 0 47 0;
#X connect 59 0 48 0;
#X connect 60 0 62 0;
#X connect 61 0 60 0;
#X connect 62 0 15 0;
#X connect 62 0 1 0;
#X connect 63 0 61 1;
#X connect 64 0 58 1;
#X connect 64 0 51 1;
#X connect 65 0 63 0;
