#N canvas -8 -8 1365 682 10;
#X obj 62 385 select 122 115 120 100 99 118 103 98 104 110 106 109
44;
#X msg 94 441 0;
#X msg 103 416 1;
#X msg 120 438 2;
#X msg 136 414 3;
#X msg 149 439 3;
#X msg 176 437 4;
#X msg 188 415 5;
#X msg 204 439 6;
#X msg 218 413 7;
#X msg 235 440 8;
#X msg 248 417 9;
#X msg 264 438 10;
#X msg 293 439 11;
#X msg 326 439 12;
#X msg 121 307 0;
#X msg 130 282 1;
#X msg 147 304 2;
#X msg 163 280 3;
#X msg 176 305 3;
#X msg 203 303 4;
#X msg 215 281 5;
#X msg 231 305 6;
#X msg 245 279 7;
#X msg 262 306 8;
#X msg 275 283 9;
#X msg 291 304 10;
#X msg 320 305 11;
#X msg 353 305 12;
#X obj 96 237 select 113 50 119 51 101 114 53 116 54 121 55 117 105
;
#X obj 243 368 +;
#X obj 109 126 hradio 15 0 0 8 empty empty 8va\ upper 0 -8 0 10 -262144
-1 -1 1;
#X obj 426 322 expr $f1 * 12;
#X obj 44 275 key;
#X obj 241 547 +;
#X obj 107 154 hradio 15 0 0 8 empty empty 8va\ downer 0 -8 0 10 -262144
-1 -1 0;
#X obj 350 505 expr $f1 * 12;
#X connect 0 0 1 0;
#X connect 0 1 2 0;
#X connect 0 2 3 0;
#X connect 0 3 5 0;
#X connect 0 4 6 0;
#X connect 0 5 7 0;
#X connect 0 6 8 0;
#X connect 0 7 9 0;
#X connect 0 8 10 0;
#X connect 0 9 11 0;
#X connect 0 10 12 0;
#X connect 0 11 13 0;
#X connect 0 12 14 0;
#X connect 1 0 34 0;
#X connect 2 0 34 0;
#X connect 3 0 34 0;
#X connect 4 0 34 0;
#X connect 5 0 34 0;
#X connect 6 0 34 0;
#X connect 7 0 34 0;
#X connect 8 0 34 0;
#X connect 9 0 34 0;
#X connect 10 0 34 0;
#X connect 11 0 34 0;
#X connect 12 0 34 0;
#X connect 13 0 34 0;
#X connect 14 0 34 0;
#X connect 15 0 30 0;
#X connect 16 0 30 0;
#X connect 17 0 30 0;
#X connect 18 0 30 0;
#X connect 19 0 30 0;
#X connect 20 0 30 0;
#X connect 21 0 30 0;
#X connect 22 0 30 0;
#X connect 23 0 30 0;
#X connect 24 0 30 0;
#X connect 25 0 30 0;
#X connect 26 0 30 0;
#X connect 27 0 30 0;
#X connect 28 0 30 0;
#X connect 29 0 15 0;
#X connect 29 1 16 0;
#X connect 29 2 17 0;
#X connect 29 3 19 0;
#X connect 29 4 20 0;
#X connect 29 5 21 0;
#X connect 29 6 22 0;
#X connect 29 7 23 0;
#X connect 29 8 24 0;
#X connect 29 9 25 0;
#X connect 29 10 26 0;
#X connect 29 11 27 0;
#X connect 29 12 28 0;
#X connect 31 0 32 0;
#X connect 32 0 30 1;
#X connect 33 0 29 0;
#X connect 33 0 0 0;
#X connect 35 0 36 0;
#X connect 36 0 34 1;
#X coords 0 -1 1 1 85 60 1 100 100;
