#N canvas 1 26 1364 691 10;
#X obj 86 439 vcf~;
#X obj 142 414 expr~ $v1 * $v2 + $v3;
#X obj 139 365 osc~;
#X obj 139 345 line~;
#X obj 139 286 * 0.01;
#X floatatom 131 119 5 0 0 0 rate - -, f 5;
#X obj 143 232 expr pow(10 \, -$f1);
#X obj 145 257 t b f;
#X obj 197 344 pack f f;
#X obj 197 364 line~;
#X obj 256 363 line~;
#X obj 263 305 mtof;
#X floatatom 185 157 5 0 0 0 base-note - -, f 5;
#X obj 204 316 *;
#X obj 188 275 t b f;
#X obj 138 390 expr~ $v1 * 0.5 + 0.5;
#X obj 166 125 hradio 11 0 0 4 empty empty rate\ *\ 10^-x -4 -5 0 8
-262144 -1 -108187 0;
#X obj 132 139 hsl 60 15 30 3000 1 0 empty empty depth 10 5 0 10 -262144
-1 -1 0 1;
#X obj 35 388 inlet~;
#X obj 109 586 outlet~;
#X obj 131 176 hsl 60 15 0.5 100 1 0 empty empty Q 12 5 0 10 -262144
-1 -1 0 1;
#X obj 139 324 pack f 20;
#X obj 256 343 pack f 20;
#X obj 25 419 expr $f1 * -1 + 1;
#X obj 224 124 vsl 15 64 0 1 0 0 empty empty wet 0 12 1 10 -1 -262144
-262144 0 1;
#X obj 26 439 pack f 20;
#X obj 26 461 line~;
#X obj 33 485 *~, f 5;
#X obj 248 468 pack f 20;
#X obj 248 490 line~;
#X obj 216 518 *~, f 5;
#X obj 141 546 +~;
#X floatatom 379 435 5 0 0 0 - - -, f 5;
#X text 513 340 falta seleccionador de onda;
#X connect 0 0 30 0;
#X connect 1 0 0 1;
#X connect 2 0 15 0;
#X connect 3 0 2 0;
#X connect 4 0 21 0;
#X connect 5 0 4 0;
#X connect 6 0 7 0;
#X connect 7 0 5 0;
#X connect 7 1 4 1;
#X connect 8 0 9 0;
#X connect 9 0 1 1;
#X connect 10 0 1 2;
#X connect 11 0 13 0;
#X connect 11 0 22 0;
#X connect 12 0 11 0;
#X connect 13 0 8 0;
#X connect 14 0 13 0;
#X connect 14 1 13 1;
#X connect 15 0 1 0;
#X connect 16 0 6 0;
#X connect 17 0 14 0;
#X connect 18 0 0 0;
#X connect 18 0 27 0;
#X connect 20 0 0 2;
#X connect 21 0 3 0;
#X connect 22 0 10 0;
#X connect 23 0 32 0;
#X connect 23 0 25 0;
#X connect 24 0 23 0;
#X connect 24 0 28 0;
#X connect 25 0 26 0;
#X connect 26 0 27 1;
#X connect 27 0 31 0;
#X connect 28 0 29 0;
#X connect 29 0 30 1;
#X connect 30 0 31 1;
#X connect 31 0 19 0;
#X coords 0 -1 1 1 145 100 1 100 100;
